<svg xmlns="http://www.w3.org/2000/svg" viewBox="0 0 64 64">
  <defs>
    <linearGradient id="bg" x1="0%" x2="100%" y1="0%" y2="100%">
      <stop offset="0%" stop-color="#5d7052" />
      <stop offset="100%" stop-color="#c18c5d" />
    </linearGradient>
  </defs>
  <rect width="64" height="64" rx="16" fill="url(#bg)" />
  <path
    d="M20 17.5c0-1.38 1.12-2.5 2.5-2.5H42c1.1 0 2 .9 2 2v29.5c0 1.38-1.12 2.5-2.5 2.5H22.5c-1.38 0-2.5-1.12-2.5-2.5z"
    fill="#fffdf7"
    opacity=".94"
  />
  <path d="M24 22h16M24 28h16M24 34h12" fill="none" opacity=".65" stroke="#5d7052" stroke-linecap="round" stroke-width="3" />
  <path d="M19 19.5h2.5a2.5 2.5 0 0 1 2.5 2.5v24a2.5 2.5 0 0 1-2.5 2.5H19" fill="none" stroke="#fffdf7" stroke-linecap="round" stroke-width="3" />
</svg>
